<svg xmlns="http://www.w3.org/2000/svg" xmlns:xlink="http://www.w3.org/1999/xlink" width="200" zoomAndPan="magnify" viewBox="0 0 150 149.999998" height="200" preserveAspectRatio="xMidYMid meet" version="1.0"><defs><g/><clipPath id="42f34bd445"><path d="M 18.425781 38 L 49 38 L 49 76 L 18.425781 76 Z M 18.425781 38 " clip-rule="nonzero"/></clipPath><clipPath id="d1561dc2c0"><path d="M 34 47 L 69.425781 47 L 69.425781 78.265625 L 34 78.265625 Z M 34 47 " clip-rule="nonzero"/></clipPath><clipPath id="ea9fb9a421"><path d="M 35 25.765625 L 64 25.765625 L 64 57 L 35 57 Z M 35 25.765625 " clip-rule="nonzero"/></clipPath></defs><g clip-path="url(#42f34bd445)"><path fill="#2ab4e8" d="M 24.488281 66.847656 L 29.304688 69.652344 L 26.777344 71.125 L 25.5 70.378906 C 27.238281 69.371094 26.867188 69.585938 26.867188 69.585938 L 23.332031 67.527344 L 21.960938 68.320312 L 18.425781 70.378906 L 26.777344 75.242188 L 32.84375 71.710938 L 36.378906 69.652344 L 28.023438 64.792969 L 28.023438 46.3125 L 30.585938 44.820312 L 30.585938 63.308594 L 38.9375 68.171875 L 42.476562 66.113281 L 48.539062 62.585938 L 40.183594 57.722656 L 35.738281 60.3125 L 39.277344 62.371094 L 40.183594 61.839844 L 41.464844 62.585938 L 38.9375 64.054688 L 34.121094 61.25 L 34.121094 38.644531 L 24.476562 44.253906 L 24.476562 66.847656 Z M 24.488281 66.847656 " fill-opacity="1" fill-rule="evenodd"/></g><g clip-path="url(#d1561dc2c0)"><path fill="#2ab4e8" d="M 63.359375 66.847656 L 63.359375 61.238281 L 65.886719 62.710938 L 65.886719 64.191406 C 64.148438 63.183594 64.515625 63.398438 64.515625 63.398438 L 64.515625 67.515625 L 65.886719 68.308594 L 69.425781 70.367188 L 69.425781 60.640625 L 63.359375 57.113281 L 59.824219 55.054688 L 59.824219 64.78125 L 43.9375 74.019531 L 41.375 72.527344 L 43.9375 71.035156 L 57.265625 63.285156 L 57.265625 53.5625 L 53.726562 51.503906 L 47.664062 47.972656 L 47.664062 57.699219 L 52.109375 60.289062 L 52.109375 56.171875 L 51.199219 55.640625 L 51.199219 54.160156 L 53.726562 55.628906 L 53.726562 61.238281 L 43.9375 66.929688 L 40.398438 68.988281 L 37.839844 70.480469 L 34.300781 72.539062 L 43.945312 78.148438 L 63.382812 66.847656 Z M 63.359375 66.847656 " fill-opacity="1" fill-rule="evenodd"/></g><g clip-path="url(#ea9fb9a421)"><path fill="#737373" d="M 35.570312 30.75 L 39.105469 28.691406 L 40.386719 27.945312 L 40.398438 27.933594 L 40.613281 27.808594 L 40.632812 27.796875 L 41.015625 27.570312 L 41.207031 27.460938 L 41.386719 27.355469 L 41.554688 27.253906 L 41.722656 27.164062 L 41.878906 27.074219 L 42.027344 26.984375 L 42.171875 26.90625 L 42.308594 26.824219 L 42.429688 26.746094 L 42.554688 26.679688 L 42.667969 26.609375 L 42.777344 26.542969 L 42.878906 26.488281 L 42.96875 26.429688 L 43.058594 26.375 L 43.136719 26.328125 L 43.21875 26.28125 L 43.285156 26.238281 L 43.417969 26.167969 L 43.476562 26.136719 L 43.53125 26.101562 L 43.578125 26.078125 L 43.621094 26.058594 L 43.667969 26.035156 L 43.699219 26.011719 L 43.734375 25.988281 L 43.765625 25.964844 L 43.789062 25.953125 L 43.8125 25.945312 L 43.835938 25.933594 L 43.855469 25.921875 L 43.890625 25.886719 L 43.914062 25.886719 L 43.914062 31.585938 L 40.375 33.644531 C 40.375 33.644531 40.375 34.074219 40.375 32.0625 L 39.097656 32.808594 L 39.097656 35.75 L 43.914062 32.945312 L 63.351562 44.242188 L 63.351562 55.449219 L 59.8125 53.390625 L 57.253906 51.898438 L 53.714844 49.839844 L 47.742188 46.367188 L 43.925781 44.152344 L 42.644531 44.898438 L 40.09375 46.378906 L 39.105469 46.957031 L 39.105469 49.898438 L 40.386719 49.152344 L 40.386719 48.097656 L 43.339844 46.378906 L 43.925781 46.039062 L 43.925781 51.242188 L 39.105469 54.046875 L 39.097656 54.058594 L 38.960938 54.136719 L 38.828125 54.21875 L 38.691406 54.296875 L 38.558594 54.375 L 38.421875 54.453125 L 38.289062 54.535156 L 38.152344 54.613281 L 38.019531 54.691406 L 37.882812 54.769531 L 37.75 54.851562 L 37.613281 54.929688 L 37.480469 55.007812 L 37.34375 55.085938 L 37.210938 55.167969 L 37.074219 55.246094 L 36.941406 55.324219 L 36.804688 55.40625 L 36.671875 55.484375 L 36.535156 55.5625 L 36.402344 55.640625 L 36.265625 55.722656 L 36.132812 55.800781 L 35.996094 55.878906 L 35.863281 55.957031 L 35.726562 56.039062 L 35.59375 56.117188 L 35.457031 56.195312 L 35.457031 45.136719 L 38.996094 43.078125 L 43.8125 40.273438 L 52.167969 45.136719 L 54.714844 46.617188 L 57.128906 48.019531 L 59.6875 49.511719 L 59.6875 46.527344 L 43.800781 37.285156 L 35.445312 42.148438 L 35.445312 30.976562 Z M 35.570312 30.75 " fill-opacity="1" fill-rule="evenodd"/></g><g fill="#2ab4e8" fill-opacity="1"><g transform="translate(72.768997, 71.362403)"><g><path d="M 0.5 0 L 3.296875 -28.84375 L 13.0625 -28.84375 L 15.8125 0 L 10.34375 0 L 9.9375 -4.671875 L 6.453125 -4.671875 L 6.109375 0 Z M 6.890625 -9.265625 L 9.5 -9.265625 L 8.234375 -23.9375 L 7.953125 -23.9375 Z M 6.890625 -9.265625 "/></g></g></g><g fill="#2ab4e8" fill-opacity="1"><g transform="translate(89.053618, 71.362403)"><g><path d="M 1.28125 0 L 1.28125 -28.84375 L 7.21875 -28.84375 L 9.875 -15.046875 L 9.875 -28.84375 L 15.453125 -28.84375 L 15.453125 0 L 9.8125 0 L 6.921875 -14.4375 L 6.921875 0 Z M 1.28125 0 "/></g></g></g><g fill="#2ab4e8" fill-opacity="1"><g transform="translate(105.774731, 71.362403)"><g><path d="M 1.28125 -28.84375 L 9.234375 -28.84375 C 11.296875 -28.84375 12.835938 -28.269531 13.859375 -27.125 C 14.890625 -25.988281 15.421875 -24.300781 15.453125 -22.0625 L 15.515625 -8.5625 C 15.535156 -5.71875 15.039062 -3.578125 14.03125 -2.140625 C 13.03125 -0.710938 11.363281 0 9.03125 0 L 1.28125 0 Z M 8.09375 -5.109375 C 9.144531 -5.109375 9.671875 -5.625 9.671875 -6.65625 L 9.671875 -21.53125 C 9.671875 -22.175781 9.617188 -22.660156 9.515625 -22.984375 C 9.421875 -23.304688 9.238281 -23.523438 8.96875 -23.640625 C 8.695312 -23.753906 8.28125 -23.8125 7.71875 -23.8125 L 7.078125 -23.8125 L 7.078125 -5.109375 Z M 8.09375 -5.109375 "/></g></g></g><g fill="#737373" fill-opacity="1"><g transform="translate(86.966993, 86.890939)"><g><path d="M 2.203125 0.078125 C 1.492188 0.078125 0.976562 -0.0976562 0.65625 -0.453125 C 0.34375 -0.804688 0.1875 -1.375 0.1875 -2.15625 L 0.1875 -2.921875 L 1.734375 -2.921875 L 1.734375 -1.953125 C 1.734375 -1.554688 1.859375 -1.359375 2.109375 -1.359375 C 2.242188 -1.359375 2.335938 -1.398438 2.390625 -1.484375 C 2.453125 -1.566406 2.484375 -1.707031 2.484375 -1.90625 C 2.484375 -2.15625 2.453125 -2.363281 2.390625 -2.53125 C 2.328125 -2.695312 2.25 -2.835938 2.15625 -2.953125 C 2.0625 -3.066406 1.894531 -3.242188 1.65625 -3.484375 L 0.96875 -4.15625 C 0.445312 -4.664062 0.1875 -5.226562 0.1875 -5.84375 C 0.1875 -6.507812 0.335938 -7.015625 0.640625 -7.359375 C 0.953125 -7.710938 1.40625 -7.890625 2 -7.890625 C 2.695312 -7.890625 3.203125 -7.703125 3.515625 -7.328125 C 3.828125 -6.960938 3.984375 -6.378906 3.984375 -5.578125 L 2.390625 -5.578125 L 2.375 -6.125 C 2.375 -6.226562 2.34375 -6.304688 2.28125 -6.359375 C 2.226562 -6.421875 2.148438 -6.453125 2.046875 -6.453125 C 1.929688 -6.453125 1.84375 -6.421875 1.78125 -6.359375 C 1.71875 -6.296875 1.6875 -6.203125 1.6875 -6.078125 C 1.6875 -5.828125 1.832031 -5.566406 2.125 -5.296875 L 3.03125 -4.421875 C 3.25 -4.210938 3.425781 -4.015625 3.5625 -3.828125 C 3.695312 -3.640625 3.804688 -3.421875 3.890625 -3.171875 C 3.984375 -2.921875 4.03125 -2.625 4.03125 -2.28125 C 4.03125 -1.507812 3.882812 -0.921875 3.59375 -0.515625 C 3.3125 -0.117188 2.847656 0.078125 2.203125 0.078125 Z M 2.203125 0.078125 "/></g></g></g><g fill="#737373" fill-opacity="1"><g transform="translate(93.29235, 86.890939)"><g><path d="M 2.21875 0.078125 C 1.582031 0.078125 1.097656 -0.113281 0.765625 -0.5 C 0.441406 -0.882812 0.28125 -1.425781 0.28125 -2.125 L 0.28125 -5.859375 C 0.28125 -6.535156 0.441406 -7.039062 0.765625 -7.375 C 1.097656 -7.71875 1.582031 -7.890625 2.21875 -7.890625 C 2.84375 -7.890625 3.316406 -7.71875 3.640625 -7.375 C 3.972656 -7.039062 4.140625 -6.535156 4.140625 -5.859375 L 4.140625 -2.125 C 4.140625 -1.425781 3.972656 -0.882812 3.640625 -0.5 C 3.316406 -0.113281 2.84375 0.078125 2.21875 0.078125 Z M 2.21875 -1.359375 C 2.351562 -1.359375 2.441406 -1.421875 2.484375 -1.546875 C 2.535156 -1.671875 2.5625 -1.84375 2.5625 -2.0625 L 2.5625 -5.890625 C 2.5625 -6.054688 2.539062 -6.191406 2.5 -6.296875 C 2.457031 -6.398438 2.363281 -6.453125 2.21875 -6.453125 C 1.957031 -6.453125 1.828125 -6.253906 1.828125 -5.859375 L 1.828125 -2.046875 C 1.828125 -1.828125 1.851562 -1.65625 1.90625 -1.53125 C 1.96875 -1.414062 2.070312 -1.359375 2.21875 -1.359375 Z M 2.21875 -1.359375 "/></g></g></g><g fill="#737373" fill-opacity="1"><g transform="translate(99.845517, 86.890939)"><g><path d="M 0.34375 0 L 0.34375 -7.828125 L 1.90625 -7.828125 L 1.90625 -1.328125 L 3.53125 -1.328125 L 3.53125 0 Z M 0.34375 0 "/></g></g></g><g fill="#737373" fill-opacity="1"><g transform="translate(105.587673, 86.890939)"><g><path d="M 2.15625 0.078125 C 1.507812 0.078125 1.03125 -0.101562 0.71875 -0.46875 C 0.40625 -0.832031 0.25 -1.375 0.25 -2.09375 L 0.25 -7.828125 L 1.78125 -7.828125 L 1.78125 -2.15625 C 1.78125 -1.90625 1.800781 -1.707031 1.84375 -1.5625 C 1.894531 -1.425781 2 -1.359375 2.15625 -1.359375 C 2.3125 -1.359375 2.414062 -1.425781 2.46875 -1.5625 C 2.519531 -1.707031 2.546875 -1.90625 2.546875 -2.15625 L 2.546875 -7.828125 L 4.0625 -7.828125 L 4.0625 -2.09375 C 4.0625 -1.375 3.90625 -0.832031 3.59375 -0.46875 C 3.28125 -0.101562 2.800781 0.078125 2.15625 0.078125 Z M 2.15625 0.078125 "/></g></g></g><g fill="#737373" fill-opacity="1"><g transform="translate(112.031489, 86.890939)"><g><path d="M 1.015625 0 L 1.015625 -6.328125 L 0.09375 -6.328125 L 0.09375 -7.828125 L 3.515625 -7.828125 L 3.515625 -6.328125 L 2.59375 -6.328125 L 2.59375 0 Z M 1.015625 0 "/></g></g></g><g fill="#737373" fill-opacity="1"><g transform="translate(117.76453, 86.890939)"><g><path d="M 0.265625 0 L 0.265625 -7.828125 L 1.78125 -7.828125 L 1.78125 0 Z M 0.265625 0 "/></g></g></g><g fill="#737373" fill-opacity="1"><g transform="translate(121.957558, 86.890939)"><g><path d="M 2.21875 0.078125 C 1.582031 0.078125 1.097656 -0.113281 0.765625 -0.5 C 0.441406 -0.882812 0.28125 -1.425781 0.28125 -2.125 L 0.28125 -5.859375 C 0.28125 -6.535156 0.441406 -7.039062 0.765625 -7.375 C 1.097656 -7.71875 1.582031 -7.890625 2.21875 -7.890625 C 2.84375 -7.890625 3.316406 -7.71875 3.640625 -7.375 C 3.972656 -7.039062 4.140625 -6.535156 4.140625 -5.859375 L 4.140625 -2.125 C 4.140625 -1.425781 3.972656 -0.882812 3.640625 -0.5 C 3.316406 -0.113281 2.84375 0.078125 2.21875 0.078125 Z M 2.21875 -1.359375 C 2.351562 -1.359375 2.441406 -1.421875 2.484375 -1.546875 C 2.535156 -1.671875 2.5625 -1.84375 2.5625 -2.0625 L 2.5625 -5.890625 C 2.5625 -6.054688 2.539062 -6.191406 2.5 -6.296875 C 2.457031 -6.398438 2.363281 -6.453125 2.21875 -6.453125 C 1.957031 -6.453125 1.828125 -6.253906 1.828125 -5.859375 L 1.828125 -2.046875 C 1.828125 -1.828125 1.851562 -1.65625 1.90625 -1.53125 C 1.96875 -1.414062 2.070312 -1.359375 2.21875 -1.359375 Z M 2.21875 -1.359375 "/></g></g></g><g fill="#737373" fill-opacity="1"><g transform="translate(128.510724, 86.890939)"><g><path d="M 0.34375 0 L 0.34375 -7.828125 L 1.953125 -7.828125 L 2.671875 -4.078125 L 2.671875 -7.828125 L 4.1875 -7.828125 L 4.1875 0 L 2.65625 0 L 1.875 -3.921875 L 1.875 0 Z M 0.34375 0 "/></g></g></g><g fill="#737373" fill-opacity="1"><g transform="translate(135.17324, 86.890939)"><g><path d="M 2.203125 0.078125 C 1.492188 0.078125 0.976562 -0.0976562 0.65625 -0.453125 C 0.34375 -0.804688 0.1875 -1.375 0.1875 -2.15625 L 0.1875 -2.921875 L 1.734375 -2.921875 L 1.734375 -1.953125 C 1.734375 -1.554688 1.859375 -1.359375 2.109375 -1.359375 C 2.242188 -1.359375 2.335938 -1.398438 2.390625 -1.484375 C 2.453125 -1.566406 2.484375 -1.707031 2.484375 -1.90625 C 2.484375 -2.15625 2.453125 -2.363281 2.390625 -2.53125 C 2.328125 -2.695312 2.25 -2.835938 2.15625 -2.953125 C 2.0625 -3.066406 1.894531 -3.242188 1.65625 -3.484375 L 0.96875 -4.15625 C 0.445312 -4.664062 0.1875 -5.226562 0.1875 -5.84375 C 0.1875 -6.507812 0.335938 -7.015625 0.640625 -7.359375 C 0.953125 -7.710938 1.40625 -7.890625 2 -7.890625 C 2.695312 -7.890625 3.203125 -7.703125 3.515625 -7.328125 C 3.828125 -6.960938 3.984375 -6.378906 3.984375 -5.578125 L 2.390625 -5.578125 L 2.375 -6.125 C 2.375 -6.226562 2.34375 -6.304688 2.28125 -6.359375 C 2.226562 -6.421875 2.148438 -6.453125 2.046875 -6.453125 C 1.929688 -6.453125 1.84375 -6.421875 1.78125 -6.359375 C 1.71875 -6.296875 1.6875 -6.203125 1.6875 -6.078125 C 1.6875 -5.828125 1.832031 -5.566406 2.125 -5.296875 L 3.03125 -4.421875 C 3.25 -4.210938 3.425781 -4.015625 3.5625 -3.828125 C 3.695312 -3.640625 3.804688 -3.421875 3.890625 -3.171875 C 3.984375 -2.921875 4.03125 -2.625 4.03125 -2.28125 C 4.03125 -1.507812 3.882812 -0.921875 3.59375 -0.515625 C 3.3125 -0.117188 2.847656 0.078125 2.203125 0.078125 Z M 2.203125 0.078125 "/></g></g></g></svg>