<svg xmlns="http://www.w3.org/2000/svg" xmlns:xlink="http://www.w3.org/1999/xlink" width="250" zoomAndPan="magnify" viewBox="0 0 187.5 187.499992" height="250" preserveAspectRatio="xMidYMid meet" version="1.0"><defs><filter x="0%" y="0%" width="100%" height="100%" id="cb46830e24"><feColorMatrix values="0 0 0 0 1 0 0 0 0 1 0 0 0 0 1 0 0 0 1 0" color-interpolation-filters="sRGB"/></filter><g/><mask id="5be51881a3"><g filter="url(#cb46830e24)"><rect x="-18.75" width="225" fill="#000000" y="-18.749999" height="224.99999" fill-opacity="0.12"/></g></mask><clipPath id="ea226296ef"><path d="M 0.574219 0.824219 L 140.449219 0.824219 L 140.449219 140.703125 L 0.574219 140.703125 Z M 0.574219 0.824219 " clip-rule="nonzero"/></clipPath><clipPath id="48f7222cd3"><rect x="0" width="141" y="0" height="141"/></clipPath><clipPath id="526d4e98a7"><path d="M 61.082031 12.300781 L 123.167969 12.300781 L 123.167969 85.605469 L 61.082031 85.605469 Z M 61.082031 12.300781 " clip-rule="nonzero"/></clipPath><clipPath id="b4d1d0e97e"><path d="M 90.089844 85.238281 L 62.726562 65.207031 C 61.695312 64.449219 61.082031 63.246094 61.082031 61.964844 L 61.082031 34.996094 L 90.089844 56.226562 Z M 94.40625 85.238281 L 121.769531 65.207031 C 122.804688 64.449219 123.414062 63.246094 123.414062 61.964844 L 123.414062 34.996094 L 94.40625 56.226562 Z M 89.984375 13.238281 L 63.140625 31.550781 L 92.148438 52.785156 L 92.25 52.710938 L 92.347656 52.785156 L 121.355469 31.550781 L 94.511719 13.238281 C 93.148438 12.308594 91.351562 12.308594 89.984375 13.238281 Z M 89.984375 13.238281 " clip-rule="nonzero"/></clipPath><mask id="870c2f7d87"><g filter="url(#cb46830e24)"><rect x="-18.75" width="225" fill="#000000" y="-18.749999" height="224.99999" fill-opacity="0.09"/></g></mask><clipPath id="698049061a"><path d="M 1 0.589844 L 63.945312 0.589844 L 63.945312 2.984375 L 1 2.984375 Z M 1 0.589844 " clip-rule="nonzero"/></clipPath><clipPath id="6d647bbaac"><rect x="0" width="64" y="0" height="3"/></clipPath></defs><g mask="url(#5be51881a3)"><g transform="matrix(1, 0, 0, 1, 23, 21)"><g clip-path="url(#48f7222cd3)"><g clip-path="url(#ea226296ef)"><path fill="#000000" d="M 134.953125 43.539062 C 131.429688 35.210938 126.386719 27.730469 119.964844 21.308594 C 113.539062 14.886719 106.0625 9.84375 97.734375 6.320312 C 89.109375 2.671875 79.949219 0.824219 70.511719 0.824219 C 61.066406 0.824219 51.910156 2.671875 43.289062 6.320312 C 34.960938 9.84375 27.480469 14.886719 21.058594 21.308594 C 14.636719 27.730469 9.59375 35.214844 6.070312 43.539062 C 2.421875 52.160156 0.574219 61.320312 0.574219 70.761719 C 0.574219 80.207031 2.421875 89.363281 6.070312 97.984375 C 9.59375 106.3125 14.636719 113.792969 21.058594 120.214844 C 27.480469 126.636719 34.960938 131.679688 43.285156 135.203125 C 51.90625 138.847656 61.066406 140.699219 70.507812 140.699219 C 79.949219 140.699219 89.109375 138.851562 97.730469 135.203125 C 106.058594 131.679688 113.539062 126.636719 119.960938 120.214844 C 126.382812 113.789062 131.421875 106.3125 134.945312 97.984375 C 138.59375 89.363281 140.445312 80.203125 140.445312 70.761719 C 140.445312 61.320312 138.597656 52.160156 134.953125 43.539062 Z M 134.820312 97.929688 C 131.304688 106.242188 126.269531 113.707031 119.859375 120.117188 C 113.453125 126.527344 105.988281 131.558594 97.675781 135.074219 C 89.070312 138.714844 79.929688 140.5625 70.503906 140.5625 C 61.082031 140.5625 51.941406 138.714844 43.335938 135.074219 C 35.023438 131.5625 27.558594 126.527344 21.148438 120.117188 C 14.738281 113.707031 9.707031 106.242188 6.191406 97.929688 C 2.550781 89.324219 0.703125 80.183594 0.703125 70.761719 C 0.703125 61.335938 2.550781 52.195312 6.191406 43.589844 C 9.710938 35.28125 14.746094 27.816406 21.15625 21.40625 C 27.566406 14.996094 35.03125 9.964844 43.34375 6.449219 C 51.949219 2.808594 61.085938 0.960938 70.511719 0.960938 C 79.933594 0.960938 89.074219 2.808594 97.679688 6.449219 C 105.992188 9.960938 113.457031 14.996094 119.867188 21.40625 C 126.277344 27.816406 131.308594 35.28125 134.828125 43.59375 C 138.464844 52.199219 140.3125 61.339844 140.3125 70.761719 C 140.304688 80.183594 138.460938 89.328125 134.820312 97.929688 Z M 134.820312 97.929688 " fill-opacity="1" fill-rule="nonzero"/></g></g></g></g><g clip-path="url(#526d4e98a7)"><g clip-path="url(#b4d1d0e97e)"><path fill="#014aad" d="M 61.082031 12.308594 L 61.082031 85.238281 L 123.167969 85.238281 L 123.167969 12.308594 Z M 61.082031 12.308594 " fill-opacity="1" fill-rule="nonzero"/></g></g><g mask="url(#870c2f7d87)"><g transform="matrix(1, 0, 0, 1, 61, 138)"><g clip-path="url(#6d647bbaac)"><g clip-path="url(#698049061a)"><path stroke-linecap="butt" transform="matrix(0.748005, 0, 0, 0.748005, 2.580451, 0.668019)" fill="none" stroke-linejoin="miter" d="M 0.00211293 1.49871 L 80.001342 1.49871 " stroke="#000000" stroke-width="3" stroke-opacity="1" stroke-miterlimit="4"/></g></g></g></g><g fill="#000000" fill-opacity="1"><g transform="translate(52.660089, 120.257109)"><g><path d="M 5.5 -8.40625 L 5.5 0 L 3.40625 0 L 3.40625 -8.40625 L 0.15625 -8.40625 L 0.15625 -10.03125 L 8.75 -10.03125 L 8.75 -8.40625 Z M 5.5 -8.40625 "/></g></g></g><g fill="#000000" fill-opacity="1"><g transform="translate(62.586858, 120.257109)"><g><path d="M 7.453125 0 L 7.453125 -4.296875 L 3.078125 -4.296875 L 3.078125 0 L 0.96875 0 L 0.96875 -10.03125 L 3.078125 -10.03125 L 3.078125 -6.03125 L 7.453125 -6.03125 L 7.453125 -10.03125 L 9.546875 -10.03125 L 9.546875 0 Z M 7.453125 0 "/></g></g></g><g fill="#000000" fill-opacity="1"><g transform="translate(74.136742, 120.257109)"><g><path d="M 0.96875 0 L 0.96875 -10.03125 L 8.859375 -10.03125 L 8.859375 -8.40625 L 3.078125 -8.40625 L 3.078125 -5.890625 L 8.421875 -5.890625 L 8.421875 -4.265625 L 3.078125 -4.265625 L 3.078125 -1.625 L 9.15625 -1.625 L 9.15625 0 Z M 0.96875 0 "/></g></g></g><g fill="#000000" fill-opacity="1"><g transform="translate(84.882186, 120.257109)"><g/></g></g><g fill="#000000" fill-opacity="1"><g transform="translate(89.953852, 120.257109)"><g><path d="M 5.65625 -1.515625 C 6.925781 -1.515625 7.804688 -2.148438 8.296875 -3.421875 L 10.125 -2.71875 C 9.726562 -1.757812 9.148438 -1.039062 8.390625 -0.5625 C 7.628906 -0.09375 6.71875 0.140625 5.65625 0.140625 C 4.039062 0.140625 2.789062 -0.3125 1.90625 -1.21875 C 1.03125 -2.132812 0.59375 -3.414062 0.59375 -5.0625 C 0.59375 -6.707031 1.015625 -7.96875 1.859375 -8.84375 C 2.710938 -9.726562 3.945312 -10.171875 5.5625 -10.171875 C 6.738281 -10.171875 7.695312 -9.9375 8.4375 -9.46875 C 9.175781 -9 9.695312 -8.304688 10 -7.390625 L 8.15625 -6.890625 C 8 -7.390625 7.691406 -7.785156 7.234375 -8.078125 C 6.773438 -8.378906 6.234375 -8.53125 5.609375 -8.53125 C 4.660156 -8.53125 3.941406 -8.234375 3.453125 -7.640625 C 2.960938 -7.054688 2.71875 -6.195312 2.71875 -5.0625 C 2.71875 -3.90625 2.96875 -3.023438 3.46875 -2.421875 C 3.976562 -1.816406 4.707031 -1.515625 5.65625 -1.515625 Z M 5.65625 -1.515625 "/></g></g></g><g fill="#000000" fill-opacity="1"><g transform="translate(101.503736, 120.257109)"><g><path d="M 5.140625 0.140625 C 3.765625 0.140625 2.707031 -0.191406 1.96875 -0.859375 C 1.238281 -1.535156 0.875 -2.503906 0.875 -3.765625 L 0.875 -10.03125 L 2.96875 -10.03125 L 2.96875 -3.921875 C 2.96875 -3.128906 3.15625 -2.523438 3.53125 -2.109375 C 3.914062 -1.703125 4.472656 -1.5 5.203125 -1.5 C 5.953125 -1.5 6.523438 -1.710938 6.921875 -2.140625 C 7.328125 -2.578125 7.53125 -3.195312 7.53125 -4 L 7.53125 -10.03125 L 9.640625 -10.03125 L 9.640625 -3.859375 C 9.640625 -2.585938 9.242188 -1.601562 8.453125 -0.90625 C 7.671875 -0.207031 6.566406 0.140625 5.140625 0.140625 Z M 5.140625 0.140625 "/></g></g></g><g fill="#000000" fill-opacity="1"><g transform="translate(113.053617, 120.257109)"><g><path d="M 9.859375 -2.859375 C 9.859375 -1.953125 9.515625 -1.25 8.828125 -0.75 C 8.148438 -0.25 7.207031 0 6 0 L 0.96875 0 L 0.96875 -10.03125 L 5.5625 -10.03125 C 6.789062 -10.03125 7.71875 -9.816406 8.34375 -9.390625 C 8.976562 -8.960938 9.296875 -8.335938 9.296875 -7.515625 C 9.296875 -6.941406 9.132812 -6.457031 8.8125 -6.0625 C 8.5 -5.675781 8.019531 -5.414062 7.375 -5.28125 C 8.1875 -5.175781 8.800781 -4.914062 9.21875 -4.5 C 9.644531 -4.09375 9.859375 -3.546875 9.859375 -2.859375 Z M 7.171875 -7.21875 C 7.171875 -7.675781 7.023438 -8 6.734375 -8.1875 C 6.453125 -8.375 6.03125 -8.46875 5.46875 -8.46875 L 3.078125 -8.46875 L 3.078125 -5.984375 L 5.484375 -5.984375 C 6.078125 -5.984375 6.503906 -6.085938 6.765625 -6.296875 C 7.035156 -6.503906 7.171875 -6.8125 7.171875 -7.21875 Z M 7.765625 -3.03125 C 7.765625 -3.96875 7.085938 -4.4375 5.734375 -4.4375 L 3.078125 -4.4375 L 3.078125 -1.5625 L 5.8125 -1.5625 C 6.488281 -1.5625 6.984375 -1.679688 7.296875 -1.921875 C 7.609375 -2.171875 7.765625 -2.539062 7.765625 -3.03125 Z M 7.765625 -3.03125 "/></g></g></g><g fill="#000000" fill-opacity="1"><g transform="translate(124.603501, 120.257109)"><g><path d="M 0.96875 0 L 0.96875 -10.03125 L 8.859375 -10.03125 L 8.859375 -8.40625 L 3.078125 -8.40625 L 3.078125 -5.890625 L 8.421875 -5.890625 L 8.421875 -4.265625 L 3.078125 -4.265625 L 3.078125 -1.625 L 9.15625 -1.625 L 9.15625 0 Z M 0.96875 0 "/></g></g></g><g fill="#d9d9d9" fill-opacity="1"><g transform="translate(62.708664, 130.223733)"><g><path d="M 2.09375 -3.359375 C 1.675781 -3.359375 1.351562 -3.222656 1.125 -2.953125 C 0.894531 -2.691406 0.78125 -2.332031 0.78125 -1.875 C 0.78125 -1.414062 0.898438 -1.046875 1.140625 -0.765625 C 1.378906 -0.492188 1.703125 -0.359375 2.109375 -0.359375 C 2.628906 -0.359375 3.019531 -0.617188 3.28125 -1.140625 L 3.703125 -0.921875 C 3.546875 -0.609375 3.328125 -0.367188 3.046875 -0.203125 C 2.773438 -0.0351562 2.457031 0.046875 2.09375 0.046875 C 1.71875 0.046875 1.390625 -0.03125 1.109375 -0.1875 C 0.835938 -0.34375 0.628906 -0.5625 0.484375 -0.84375 C 0.347656 -1.132812 0.28125 -1.476562 0.28125 -1.875 C 0.28125 -2.46875 0.4375 -2.929688 0.75 -3.265625 C 1.070312 -3.609375 1.515625 -3.78125 2.078125 -3.78125 C 2.472656 -3.78125 2.804688 -3.703125 3.078125 -3.546875 C 3.347656 -3.390625 3.539062 -3.160156 3.65625 -2.859375 L 3.1875 -2.6875 C 3.101562 -2.90625 2.960938 -3.070312 2.765625 -3.1875 C 2.578125 -3.300781 2.351562 -3.359375 2.09375 -3.359375 Z M 2.09375 -3.359375 "/></g></g></g><g fill="#d9d9d9" fill-opacity="1"><g transform="translate(66.992695, 130.223733)"><g><path d="M 3.078125 0 L 2.109375 -1.546875 L 0.953125 -1.546875 L 0.953125 0 L 0.4375 0 L 0.4375 -3.71875 L 2.1875 -3.71875 C 2.613281 -3.71875 2.9375 -3.625 3.15625 -3.4375 C 3.382812 -3.25 3.5 -2.988281 3.5 -2.65625 C 3.5 -2.375 3.414062 -2.140625 3.25 -1.953125 C 3.09375 -1.765625 2.875 -1.648438 2.59375 -1.609375 L 3.65625 0 Z M 3 -2.65625 C 3 -2.863281 2.925781 -3.023438 2.78125 -3.140625 C 2.632812 -3.253906 2.421875 -3.3125 2.140625 -3.3125 L 0.953125 -3.3125 L 0.953125 -1.9375 L 2.171875 -1.9375 C 2.429688 -1.9375 2.632812 -2 2.78125 -2.125 C 2.925781 -2.25 3 -2.425781 3 -2.65625 Z M 3 -2.65625 "/></g></g></g><g fill="#d9d9d9" fill-opacity="1"><g transform="translate(71.276726, 130.223733)"><g><path d="M 0.4375 0 L 0.4375 -3.71875 L 3.265625 -3.71875 L 3.265625 -3.3125 L 0.953125 -3.3125 L 0.953125 -2.109375 L 3.109375 -2.109375 L 3.109375 -1.703125 L 0.953125 -1.703125 L 0.953125 -0.40625 L 3.375 -0.40625 L 3.375 0 Z M 0.4375 0 "/></g></g></g><g fill="#d9d9d9" fill-opacity="1"><g transform="translate(75.262367, 130.223733)"><g><path d="M 3.078125 0 L 2.65625 -1.09375 L 0.953125 -1.09375 L 0.53125 0 L 0.015625 0 L 1.53125 -3.71875 L 2.09375 -3.71875 L 3.59375 0 Z M 1.8125 -3.34375 L 1.78125 -3.265625 C 1.738281 -3.117188 1.675781 -2.929688 1.59375 -2.703125 L 1.109375 -1.484375 L 2.5 -1.484375 L 2.03125 -2.703125 C 1.976562 -2.828125 1.925781 -2.96875 1.875 -3.125 Z M 1.8125 -3.34375 "/></g></g></g><g fill="#d9d9d9" fill-opacity="1"><g transform="translate(79.248008, 130.223733)"><g><path d="M 1.90625 -3.3125 L 1.90625 0 L 1.40625 0 L 1.40625 -3.3125 L 0.125 -3.3125 L 0.125 -3.71875 L 3.171875 -3.71875 L 3.171875 -3.3125 Z M 1.90625 -3.3125 "/></g></g></g><g fill="#d9d9d9" fill-opacity="1"><g transform="translate(82.929978, 130.223733)"><g><path d="M 0.5 0 L 0.5 -3.71875 L 1 -3.71875 L 1 0 Z M 0.5 0 "/></g></g></g><g fill="#d9d9d9" fill-opacity="1"><g transform="translate(84.811048, 130.223733)"><g><path d="M 2.0625 0 L 1.546875 0 L 0.03125 -3.71875 L 0.546875 -3.71875 L 1.578125 -1.09375 L 1.8125 -0.4375 L 2.03125 -1.09375 L 3.046875 -3.71875 L 3.578125 -3.71875 Z M 2.0625 0 "/></g></g></g><g fill="#d9d9d9" fill-opacity="1"><g transform="translate(88.796689, 130.223733)"><g><path d="M 0.4375 0 L 0.4375 -3.71875 L 3.265625 -3.71875 L 3.265625 -3.3125 L 0.953125 -3.3125 L 0.953125 -2.109375 L 3.109375 -2.109375 L 3.109375 -1.703125 L 0.953125 -1.703125 L 0.953125 -0.40625 L 3.375 -0.40625 L 3.375 0 Z M 0.4375 0 "/></g></g></g><g fill="#d9d9d9" fill-opacity="1"><g transform="translate(92.782331, 130.223733)"><g/></g></g><g fill="#d9d9d9" fill-opacity="1"><g transform="translate(94.663399, 130.223733)"><g><path d="M 2.09375 -3.359375 C 1.675781 -3.359375 1.351562 -3.222656 1.125 -2.953125 C 0.894531 -2.691406 0.78125 -2.332031 0.78125 -1.875 C 0.78125 -1.414062 0.898438 -1.046875 1.140625 -0.765625 C 1.378906 -0.492188 1.703125 -0.359375 2.109375 -0.359375 C 2.628906 -0.359375 3.019531 -0.617188 3.28125 -1.140625 L 3.703125 -0.921875 C 3.546875 -0.609375 3.328125 -0.367188 3.046875 -0.203125 C 2.773438 -0.0351562 2.457031 0.046875 2.09375 0.046875 C 1.71875 0.046875 1.390625 -0.03125 1.109375 -0.1875 C 0.835938 -0.34375 0.628906 -0.5625 0.484375 -0.84375 C 0.347656 -1.132812 0.28125 -1.476562 0.28125 -1.875 C 0.28125 -2.46875 0.4375 -2.929688 0.75 -3.265625 C 1.070312 -3.609375 1.515625 -3.78125 2.078125 -3.78125 C 2.472656 -3.78125 2.804688 -3.703125 3.078125 -3.546875 C 3.347656 -3.390625 3.539062 -3.160156 3.65625 -2.859375 L 3.1875 -2.6875 C 3.101562 -2.90625 2.960938 -3.070312 2.765625 -3.1875 C 2.578125 -3.300781 2.351562 -3.359375 2.09375 -3.359375 Z M 2.09375 -3.359375 "/></g></g></g><g fill="#d9d9d9" fill-opacity="1"><g transform="translate(98.947428, 130.223733)"><g><path d="M 3.953125 -1.875 C 3.953125 -1.488281 3.875 -1.148438 3.71875 -0.859375 C 3.570312 -0.566406 3.359375 -0.34375 3.078125 -0.1875 C 2.804688 -0.03125 2.476562 0.046875 2.09375 0.046875 C 1.71875 0.046875 1.390625 -0.0234375 1.109375 -0.171875 C 0.828125 -0.328125 0.613281 -0.550781 0.46875 -0.84375 C 0.320312 -1.144531 0.25 -1.488281 0.25 -1.875 C 0.25 -2.46875 0.410156 -2.929688 0.734375 -3.265625 C 1.066406 -3.609375 1.523438 -3.78125 2.109375 -3.78125 C 2.484375 -3.78125 2.804688 -3.703125 3.078125 -3.546875 C 3.359375 -3.398438 3.570312 -3.179688 3.71875 -2.890625 C 3.875 -2.609375 3.953125 -2.269531 3.953125 -1.875 Z M 3.4375 -1.875 C 3.4375 -2.34375 3.316406 -2.707031 3.078125 -2.96875 C 2.847656 -3.226562 2.523438 -3.359375 2.109375 -3.359375 C 1.679688 -3.359375 1.347656 -3.226562 1.109375 -2.96875 C 0.878906 -2.707031 0.765625 -2.34375 0.765625 -1.875 C 0.765625 -1.40625 0.878906 -1.035156 1.109375 -0.765625 C 1.347656 -0.492188 1.675781 -0.359375 2.09375 -0.359375 C 2.53125 -0.359375 2.863281 -0.488281 3.09375 -0.75 C 3.320312 -1.019531 3.4375 -1.394531 3.4375 -1.875 Z M 3.4375 -1.875 "/></g></g></g><g fill="#d9d9d9" fill-opacity="1"><g transform="translate(103.532487, 130.223733)"><g><path d="M 3.609375 0 L 3.609375 -2.484375 C 3.609375 -2.753906 3.613281 -3.015625 3.625 -3.265625 C 3.539062 -2.953125 3.460938 -2.707031 3.390625 -2.53125 L 2.4375 0 L 2.078125 0 L 1.109375 -2.53125 L 0.953125 -2.984375 L 0.875 -3.265625 L 0.875 -2.984375 L 0.890625 -2.484375 L 0.890625 0 L 0.4375 0 L 0.4375 -3.71875 L 1.109375 -3.71875 L 2.09375 -1.140625 C 2.132812 -1.035156 2.171875 -0.921875 2.203125 -0.796875 C 2.234375 -0.679688 2.253906 -0.597656 2.265625 -0.546875 C 2.273438 -0.617188 2.300781 -0.722656 2.34375 -0.859375 C 2.394531 -1.003906 2.425781 -1.097656 2.4375 -1.140625 L 3.40625 -3.71875 L 4.0625 -3.71875 L 4.0625 0 Z M 3.609375 0 "/></g></g></g><g fill="#d9d9d9" fill-opacity="1"><g transform="translate(108.415937, 130.223733)"><g><path d="M 3.328125 -2.59375 C 3.328125 -2.25 3.207031 -1.972656 2.96875 -1.765625 C 2.738281 -1.554688 2.429688 -1.453125 2.046875 -1.453125 L 0.953125 -1.453125 L 0.953125 0 L 0.4375 0 L 0.4375 -3.71875 L 2.015625 -3.71875 C 2.429688 -3.71875 2.753906 -3.617188 2.984375 -3.421875 C 3.210938 -3.234375 3.328125 -2.957031 3.328125 -2.59375 Z M 2.8125 -2.59375 C 2.8125 -3.070312 2.523438 -3.3125 1.953125 -3.3125 L 0.953125 -3.3125 L 0.953125 -1.84375 L 1.96875 -1.84375 C 2.53125 -1.84375 2.8125 -2.09375 2.8125 -2.59375 Z M 2.8125 -2.59375 "/></g></g></g><g fill="#d9d9d9" fill-opacity="1"><g transform="translate(112.401576, 130.223733)"><g><path d="M 3.078125 0 L 2.65625 -1.09375 L 0.953125 -1.09375 L 0.53125 0 L 0.015625 0 L 1.53125 -3.71875 L 2.09375 -3.71875 L 3.59375 0 Z M 1.8125 -3.34375 L 1.78125 -3.265625 C 1.738281 -3.117188 1.675781 -2.929688 1.59375 -2.703125 L 1.109375 -1.484375 L 2.5 -1.484375 L 2.03125 -2.703125 C 1.976562 -2.828125 1.925781 -2.96875 1.875 -3.125 Z M 1.8125 -3.34375 "/></g></g></g><g fill="#d9d9d9" fill-opacity="1"><g transform="translate(116.387216, 130.223733)"><g><path d="M 2.859375 0 L 0.859375 -3.171875 L 0.875 -2.90625 L 0.890625 -2.46875 L 0.890625 0 L 0.4375 0 L 0.4375 -3.71875 L 1.03125 -3.71875 L 3.046875 -0.53125 C 3.023438 -0.875 3.015625 -1.125 3.015625 -1.28125 L 3.015625 -3.71875 L 3.46875 -3.71875 L 3.46875 0 Z M 2.859375 0 "/></g></g></g><g fill="#d9d9d9" fill-opacity="1"><g transform="translate(120.671245, 130.223733)"><g><path d="M 2.046875 -1.546875 L 2.046875 0 L 1.546875 0 L 1.546875 -1.546875 L 0.125 -3.71875 L 0.671875 -3.71875 L 1.8125 -1.953125 L 2.9375 -3.71875 L 3.484375 -3.71875 Z M 2.046875 -1.546875 "/></g></g></g></svg>