<svg xmlns="http://www.w3.org/2000/svg" xmlns:xlink="http://www.w3.org/1999/xlink" width="500" zoomAndPan="magnify" viewBox="0 0 375 374.999991" height="500" preserveAspectRatio="xMidYMid meet" version="1.0"><defs><g/><clipPath id="d65e05d074"><path d="M 123.746094 111 L 200 111 L 200 203 L 123.746094 203 Z M 123.746094 111 " clip-rule="nonzero"/></clipPath><clipPath id="4dd99acb3c"><path d="M 163 134 L 251.246094 134 L 251.246094 209.984375 L 163 209.984375 Z M 163 134 " clip-rule="nonzero"/></clipPath><clipPath id="9ef8399968"><path d="M 166 79.484375 L 237 79.484375 L 237 156 L 166 156 Z M 166 79.484375 " clip-rule="nonzero"/></clipPath></defs><g clip-path="url(#d65e05d074)"><path fill="#2ab4e8" d="M 138.90625 181.597656 L 150.949219 188.566406 L 144.632812 192.222656 L 141.433594 190.367188 C 145.785156 187.863281 144.855469 188.398438 144.855469 188.398438 L 136.015625 183.28125 L 132.589844 185.25 L 123.746094 190.367188 L 144.632812 202.453125 L 159.792969 193.683594 L 168.632812 188.566406 L 147.75 176.480469 L 147.75 130.554688 L 154.148438 126.84375 L 154.148438 172.800781 L 175.035156 184.886719 L 183.875 179.769531 L 199.035156 171 L 178.148438 158.914062 L 167.035156 165.351562 L 175.875 170.464844 L 178.148438 169.144531 L 181.351562 171 L 175.035156 174.652344 L 162.992188 167.683594 L 162.992188 111.5 L 138.878906 125.4375 L 138.878906 181.597656 Z M 138.90625 181.597656 " fill-opacity="1" fill-rule="evenodd"/></g><g clip-path="url(#4dd99acb3c)"><path fill="#2ab4e8" d="M 236.089844 181.597656 L 236.089844 167.65625 L 242.40625 171.308594 L 242.40625 174.992188 C 238.054688 172.488281 238.980469 173.023438 238.980469 173.023438 L 238.980469 183.253906 L 242.40625 185.222656 L 251.246094 190.335938 L 251.246094 166.164062 L 236.089844 157.398438 L 227.246094 152.28125 L 227.246094 176.453125 L 187.527344 199.417969 L 181.125 195.707031 L 187.527344 191.996094 L 220.847656 172.742188 L 220.847656 148.570312 L 212.003906 143.457031 L 196.84375 134.6875 L 196.84375 158.859375 L 207.960938 165.292969 L 207.960938 155.0625 L 205.6875 153.742188 L 205.6875 150.0625 L 212.003906 153.714844 L 212.003906 167.65625 L 187.527344 181.792969 L 178.683594 186.910156 L 172.28125 190.617188 L 163.441406 195.734375 L 187.554688 209.675781 L 236.144531 181.597656 Z M 236.089844 181.597656 " fill-opacity="1" fill-rule="evenodd"/></g><g clip-path="url(#9ef8399968)"><path fill="#737373" d="M 166.613281 91.878906 L 175.453125 86.765625 L 178.65625 84.910156 L 178.683594 84.882812 L 179.214844 84.574219 L 179.273438 84.542969 L 180.703125 83.699219 L 181.152344 83.449219 L 181.574219 83.195312 L 181.996094 82.96875 L 182.386719 82.746094 L 182.753906 82.519531 L 183.117188 82.324219 L 183.457031 82.128906 L 183.765625 81.929688 L 184.074219 81.761719 L 184.351562 81.59375 L 184.632812 81.425781 L 184.886719 81.285156 L 185.113281 81.144531 L 185.335938 81.003906 L 185.53125 80.890625 L 185.730469 80.777344 L 185.898438 80.664062 L 186.066406 80.582031 L 186.234375 80.496094 L 186.375 80.414062 L 186.515625 80.328125 L 186.628906 80.273438 L 186.738281 80.214844 L 186.851562 80.160156 L 186.9375 80.101562 L 187.019531 80.046875 L 187.105469 79.992188 L 187.160156 79.960938 L 187.214844 79.933594 L 187.273438 79.90625 L 187.328125 79.878906 L 187.414062 79.792969 L 187.46875 79.792969 L 187.46875 93.960938 L 178.625 99.074219 C 178.625 99.074219 178.625 100.144531 178.625 95.140625 L 175.425781 96.996094 L 175.425781 104.304688 L 187.46875 97.332031 L 236.0625 125.410156 L 236.0625 153.265625 L 227.21875 148.148438 L 220.816406 144.441406 L 211.976562 139.324219 L 197.042969 130.695312 L 187.496094 125.1875 L 184.296875 127.042969 L 177.925781 130.722656 L 175.453125 132.15625 L 175.453125 139.464844 L 178.65625 137.609375 L 178.65625 134.996094 L 186.039062 130.722656 L 187.496094 129.878906 L 187.496094 142.808594 L 175.453125 149.78125 L 175.425781 149.808594 L 175.089844 150.003906 L 174.753906 150.203125 L 174.417969 150.398438 L 174.078125 150.59375 L 173.742188 150.792969 L 173.070312 151.183594 L 172.730469 151.382812 L 172.058594 151.773438 L 171.722656 151.972656 L 171.382812 152.167969 L 171.046875 152.367188 L 170.375 152.757812 L 170.035156 152.957031 L 169.363281 153.347656 L 169.027344 153.546875 L 168.691406 153.742188 L 168.351562 153.941406 L 167.679688 154.332031 L 167.34375 154.53125 L 167.003906 154.726562 L 166.667969 154.921875 L 166.332031 155.121094 L 166.332031 127.632812 L 175.175781 122.515625 L 187.214844 115.546875 L 208.101562 127.632812 L 214.472656 131.3125 L 220.507812 134.800781 L 226.910156 138.507812 L 226.910156 131.089844 L 187.1875 108.125 L 166.304688 120.210938 L 166.304688 92.441406 Z M 166.613281 91.878906 " fill-opacity="1" fill-rule="evenodd"/></g><g fill="#2ab4e8" fill-opacity="1"><g transform="translate(152.359232, 259.103565)"><g><path d="M 0.609375 0 L 4.015625 -35.171875 L 15.9375 -35.171875 L 19.28125 0 L 12.609375 0 L 12.125 -5.6875 L 7.859375 -5.6875 L 7.453125 0 Z M 8.390625 -11.296875 L 11.59375 -11.296875 L 10.03125 -29.203125 L 9.703125 -29.203125 Z M 8.390625 -11.296875 "/></g></g></g><g fill="#2ab4e8" fill-opacity="1"><g transform="translate(172.219657, 259.103565)"><g><path d="M 1.4375 -29.984375 L 8.59375 -29.984375 L 8.59375 -26.171875 C 8.894531 -27.398438 9.414062 -28.394531 10.15625 -29.15625 C 10.894531 -29.925781 11.878906 -30.3125 13.109375 -30.3125 C 15.128906 -30.3125 16.625 -29.6875 17.59375 -28.4375 C 18.5625 -27.195312 19.046875 -25.429688 19.046875 -23.140625 L 19.046875 0 L 12 0 L 12 -22.40625 C 12 -23.0625 11.867188 -23.617188 11.609375 -24.078125 C 11.347656 -24.546875 10.945312 -24.78125 10.40625 -24.78125 C 9.664062 -24.78125 9.175781 -24.441406 8.9375 -23.765625 C 8.707031 -23.097656 8.59375 -22.207031 8.59375 -21.09375 L 8.59375 0 L 1.4375 0 Z M 1.4375 -29.984375 "/></g></g></g><g fill="#2ab4e8" fill-opacity="1"><g transform="translate(192.653374, 259.103565)"><g><path d="M 7.328125 0.328125 C 5.578125 0.328125 4.257812 -0.0859375 3.375 -0.921875 C 2.488281 -1.753906 1.898438 -2.859375 1.609375 -4.234375 C 1.328125 -5.617188 1.1875 -7.390625 1.1875 -9.546875 L 1.265625 -23.0625 C 1.265625 -25.1875 1.800781 -26.925781 2.875 -28.28125 C 3.957031 -29.632812 5.484375 -30.3125 7.453125 -30.3125 C 9.390625 -30.3125 10.835938 -29.664062 11.796875 -28.375 L 11.796875 -35.390625 L 18.96875 -35.390625 L 18.96875 0 L 11.796875 0 L 11.796875 -3.1875 C 11.390625 -2.019531 10.835938 -1.140625 10.140625 -0.546875 C 9.441406 0.0351562 8.503906 0.328125 7.328125 0.328125 Z M 10.078125 -5.28125 C 10.785156 -5.28125 11.25 -5.628906 11.46875 -6.328125 C 11.6875 -7.023438 11.796875 -7.957031 11.796875 -9.125 L 11.796875 -21.671875 C 11.796875 -22.535156 11.671875 -23.269531 11.421875 -23.875 C 11.179688 -24.476562 10.742188 -24.78125 10.109375 -24.78125 C 9.398438 -24.78125 8.929688 -24.5 8.703125 -23.9375 C 8.472656 -23.375 8.359375 -22.617188 8.359375 -21.671875 L 8.359375 -9.046875 C 8.359375 -6.535156 8.929688 -5.28125 10.078125 -5.28125 Z M 10.078125 -5.28125 "/></g></g></g><g fill="#2ab4e8" fill-opacity="1"><g transform="translate(213.050891, 259.103565)"><g/></g></g><g fill="#737373" fill-opacity="1"><g transform="translate(136.340768, 291.905928)"><g><path d="M 4.3125 0.140625 C 2.914062 0.140625 1.910156 -0.203125 1.296875 -0.890625 C 0.679688 -1.578125 0.375 -2.6875 0.375 -4.21875 L 0.375 -5.71875 L 3.375 -5.71875 L 3.375 -3.8125 C 3.375 -3.050781 3.617188 -2.671875 4.109375 -2.671875 C 4.378906 -2.671875 4.566406 -2.75 4.671875 -2.90625 C 4.785156 -3.070312 4.84375 -3.34375 4.84375 -3.71875 C 4.84375 -4.21875 4.78125 -4.628906 4.65625 -4.953125 C 4.539062 -5.285156 4.390625 -5.5625 4.203125 -5.78125 C 4.023438 -6 3.695312 -6.335938 3.21875 -6.796875 L 1.90625 -8.109375 C 0.882812 -9.109375 0.375 -10.210938 0.375 -11.421875 C 0.375 -12.734375 0.671875 -13.726562 1.265625 -14.40625 C 1.867188 -15.09375 2.742188 -15.4375 3.890625 -15.4375 C 5.273438 -15.4375 6.269531 -15.066406 6.875 -14.328125 C 7.476562 -13.597656 7.78125 -12.457031 7.78125 -10.90625 L 4.65625 -10.90625 L 4.640625 -11.953125 C 4.640625 -12.160156 4.582031 -12.320312 4.46875 -12.4375 C 4.363281 -12.5625 4.207031 -12.625 4 -12.625 C 3.757812 -12.625 3.582031 -12.554688 3.46875 -12.421875 C 3.351562 -12.285156 3.296875 -12.109375 3.296875 -11.890625 C 3.296875 -11.390625 3.578125 -10.875 4.140625 -10.34375 L 5.921875 -8.625 C 6.335938 -8.226562 6.679688 -7.847656 6.953125 -7.484375 C 7.234375 -7.117188 7.453125 -6.691406 7.609375 -6.203125 C 7.773438 -5.710938 7.859375 -5.128906 7.859375 -4.453125 C 7.859375 -2.941406 7.582031 -1.796875 7.03125 -1.015625 C 6.488281 -0.242188 5.582031 0.140625 4.3125 0.140625 Z M 4.3125 0.140625 "/></g></g></g><g fill="#737373" fill-opacity="1"><g transform="translate(148.687817, 291.905928)"><g><path d="M 4.328125 0.140625 C 3.085938 0.140625 2.144531 -0.234375 1.5 -0.984375 C 0.863281 -1.742188 0.546875 -2.804688 0.546875 -4.171875 L 0.546875 -11.4375 C 0.546875 -12.757812 0.863281 -13.753906 1.5 -14.421875 C 2.144531 -15.097656 3.085938 -15.4375 4.328125 -15.4375 C 5.554688 -15.4375 6.488281 -15.097656 7.125 -14.421875 C 7.769531 -13.753906 8.09375 -12.757812 8.09375 -11.4375 L 8.09375 -4.171875 C 8.09375 -2.785156 7.769531 -1.71875 7.125 -0.96875 C 6.488281 -0.226562 5.554688 0.140625 4.328125 0.140625 Z M 4.328125 -2.671875 C 4.597656 -2.671875 4.78125 -2.785156 4.875 -3.015625 C 4.96875 -3.253906 5.015625 -3.585938 5.015625 -4.015625 L 5.015625 -11.5 C 5.015625 -11.832031 4.96875 -12.101562 4.875 -12.3125 C 4.789062 -12.519531 4.613281 -12.625 4.34375 -12.625 C 3.832031 -12.625 3.578125 -12.238281 3.578125 -11.46875 L 3.578125 -4 C 3.578125 -3.5625 3.628906 -3.226562 3.734375 -3 C 3.835938 -2.78125 4.035156 -2.671875 4.328125 -2.671875 Z M 4.328125 -2.671875 "/></g></g></g><g fill="#737373" fill-opacity="1"><g transform="translate(161.479594, 291.905928)"><g><path d="M 0.671875 0 L 0.671875 -15.28125 L 3.734375 -15.28125 L 3.734375 -2.59375 L 6.890625 -2.59375 L 6.890625 0 Z M 0.671875 0 "/></g></g></g><g fill="#737373" fill-opacity="1"><g transform="translate(172.68814, 291.905928)"><g><path d="M 4.21875 0.140625 C 2.957031 0.140625 2.019531 -0.210938 1.40625 -0.921875 C 0.800781 -1.640625 0.5 -2.695312 0.5 -4.09375 L 0.5 -15.28125 L 3.46875 -15.28125 L 3.46875 -4.21875 C 3.46875 -3.726562 3.515625 -3.347656 3.609375 -3.078125 C 3.703125 -2.804688 3.90625 -2.671875 4.21875 -2.671875 C 4.53125 -2.671875 4.734375 -2.800781 4.828125 -3.0625 C 4.921875 -3.332031 4.96875 -3.71875 4.96875 -4.21875 L 4.96875 -15.28125 L 7.9375 -15.28125 L 7.9375 -4.09375 C 7.9375 -2.695312 7.628906 -1.640625 7.015625 -0.921875 C 6.410156 -0.210938 5.476562 0.140625 4.21875 0.140625 Z M 4.21875 0.140625 "/></g></g></g><g fill="#737373" fill-opacity="1"><g transform="translate(185.266437, 291.905928)"><g><path d="M 2 0 L 2 -12.34375 L 0.171875 -12.34375 L 0.171875 -15.28125 L 6.875 -15.28125 L 6.875 -12.34375 L 5.046875 -12.34375 L 5.046875 0 Z M 2 0 "/></g></g></g><g fill="#737373" fill-opacity="1"><g transform="translate(196.457185, 291.905928)"><g><path d="M 0.53125 0 L 0.53125 -15.28125 L 3.484375 -15.28125 L 3.484375 0 Z M 0.53125 0 "/></g></g></g><g fill="#737373" fill-opacity="1"><g transform="translate(204.64157, 291.905928)"><g><path d="M 4.328125 0.140625 C 3.085938 0.140625 2.144531 -0.234375 1.5 -0.984375 C 0.863281 -1.742188 0.546875 -2.804688 0.546875 -4.171875 L 0.546875 -11.4375 C 0.546875 -12.757812 0.863281 -13.753906 1.5 -14.421875 C 2.144531 -15.097656 3.085938 -15.4375 4.328125 -15.4375 C 5.554688 -15.4375 6.488281 -15.097656 7.125 -14.421875 C 7.769531 -13.753906 8.09375 -12.757812 8.09375 -11.4375 L 8.09375 -4.171875 C 8.09375 -2.785156 7.769531 -1.71875 7.125 -0.96875 C 6.488281 -0.226562 5.554688 0.140625 4.328125 0.140625 Z M 4.328125 -2.671875 C 4.597656 -2.671875 4.78125 -2.785156 4.875 -3.015625 C 4.96875 -3.253906 5.015625 -3.585938 5.015625 -4.015625 L 5.015625 -11.5 C 5.015625 -11.832031 4.96875 -12.101562 4.875 -12.3125 C 4.789062 -12.519531 4.613281 -12.625 4.34375 -12.625 C 3.832031 -12.625 3.578125 -12.238281 3.578125 -11.46875 L 3.578125 -4 C 3.578125 -3.5625 3.628906 -3.226562 3.734375 -3 C 3.835938 -2.78125 4.035156 -2.671875 4.328125 -2.671875 Z M 4.328125 -2.671875 "/></g></g></g><g fill="#737373" fill-opacity="1"><g transform="translate(217.433345, 291.905928)"><g><path d="M 0.671875 0 L 0.671875 -15.28125 L 3.828125 -15.28125 L 5.234375 -7.96875 L 5.234375 -15.28125 L 8.1875 -15.28125 L 8.1875 0 L 5.203125 0 L 3.671875 -7.65625 L 3.671875 0 Z M 0.671875 0 "/></g></g></g><g fill="#737373" fill-opacity="1"><g transform="translate(230.438587, 291.905928)"><g><path d="M 4.3125 0.140625 C 2.914062 0.140625 1.910156 -0.203125 1.296875 -0.890625 C 0.679688 -1.578125 0.375 -2.6875 0.375 -4.21875 L 0.375 -5.71875 L 3.375 -5.71875 L 3.375 -3.8125 C 3.375 -3.050781 3.617188 -2.671875 4.109375 -2.671875 C 4.378906 -2.671875 4.566406 -2.75 4.671875 -2.90625 C 4.785156 -3.070312 4.84375 -3.34375 4.84375 -3.71875 C 4.84375 -4.21875 4.78125 -4.628906 4.65625 -4.953125 C 4.539062 -5.285156 4.390625 -5.5625 4.203125 -5.78125 C 4.023438 -6 3.695312 -6.335938 3.21875 -6.796875 L 1.90625 -8.109375 C 0.882812 -9.109375 0.375 -10.210938 0.375 -11.421875 C 0.375 -12.734375 0.671875 -13.726562 1.265625 -14.40625 C 1.867188 -15.09375 2.742188 -15.4375 3.890625 -15.4375 C 5.273438 -15.4375 6.269531 -15.066406 6.875 -14.328125 C 7.476562 -13.597656 7.78125 -12.457031 7.78125 -10.90625 L 4.65625 -10.90625 L 4.640625 -11.953125 C 4.640625 -12.160156 4.582031 -12.320312 4.46875 -12.4375 C 4.363281 -12.5625 4.207031 -12.625 4 -12.625 C 3.757812 -12.625 3.582031 -12.554688 3.46875 -12.421875 C 3.351562 -12.285156 3.296875 -12.109375 3.296875 -11.890625 C 3.296875 -11.390625 3.578125 -10.875 4.140625 -10.34375 L 5.921875 -8.625 C 6.335938 -8.226562 6.679688 -7.847656 6.953125 -7.484375 C 7.234375 -7.117188 7.453125 -6.691406 7.609375 -6.203125 C 7.773438 -5.710938 7.859375 -5.128906 7.859375 -4.453125 C 7.859375 -2.941406 7.582031 -1.796875 7.03125 -1.015625 C 6.488281 -0.242188 5.582031 0.140625 4.3125 0.140625 Z M 4.3125 0.140625 "/></g></g></g></svg>