<svg xmlns="http://www.w3.org/2000/svg" xmlns:xlink="http://www.w3.org/1999/xlink" width="500" zoomAndPan="magnify" viewBox="0 0 375 374.999991" height="500" preserveAspectRatio="xMidYMid meet" version="1.0"><defs><g/><clipPath id="a8f06a8ec3"><path d="M 46.0625 96 L 122 96 L 122 188 L 46.0625 188 Z M 46.0625 96 " clip-rule="nonzero"/></clipPath><clipPath id="6842d3bc77"><path d="M 85 119 L 173.5625 119 L 173.5625 194.917969 L 85 194.917969 Z M 85 119 " clip-rule="nonzero"/></clipPath><clipPath id="b371540117"><path d="M 88 64.417969 L 159 64.417969 L 159 141 L 88 141 Z M 88 64.417969 " clip-rule="nonzero"/></clipPath></defs><g clip-path="url(#a8f06a8ec3)"><path fill="#2ab4e8" d="M 61.21875 166.53125 L 73.261719 173.5 L 66.945312 177.15625 L 63.746094 175.300781 C 68.097656 172.796875 67.171875 173.332031 67.171875 173.332031 L 58.328125 168.214844 L 54.902344 170.183594 L 46.0625 175.300781 L 66.945312 187.386719 L 82.105469 178.617188 L 90.945312 173.5 L 70.0625 161.414062 L 70.0625 115.488281 L 76.460938 111.777344 L 76.460938 157.734375 L 97.347656 169.820312 L 106.191406 164.703125 L 121.347656 155.933594 L 100.464844 143.847656 L 89.347656 150.285156 L 98.1875 155.398438 L 100.464844 154.078125 L 103.664062 155.933594 L 97.347656 159.585938 L 85.304688 152.617188 L 85.304688 96.433594 L 61.191406 110.375 L 61.191406 166.53125 Z M 61.21875 166.53125 " fill-opacity="1" fill-rule="evenodd"/></g><g clip-path="url(#6842d3bc77)"><path fill="#2ab4e8" d="M 158.402344 166.53125 L 158.402344 152.589844 L 164.71875 156.242188 L 164.71875 159.925781 C 160.367188 157.421875 161.292969 157.957031 161.292969 157.957031 L 161.292969 168.1875 L 164.71875 170.15625 L 173.5625 175.269531 L 173.5625 151.101562 L 158.402344 142.332031 L 149.558594 137.214844 L 149.558594 161.386719 L 109.839844 184.351562 L 103.4375 180.640625 L 109.839844 176.929688 L 143.160156 157.675781 L 143.160156 133.503906 L 134.316406 128.390625 L 119.160156 119.621094 L 119.160156 143.792969 L 130.273438 150.226562 L 130.273438 139.996094 L 128 138.675781 L 128 134.996094 L 134.316406 138.648438 L 134.316406 152.589844 L 109.839844 166.726562 L 100.996094 171.84375 L 94.597656 175.550781 L 85.753906 180.667969 L 109.867188 194.609375 L 158.457031 166.53125 Z M 158.402344 166.53125 " fill-opacity="1" fill-rule="evenodd"/></g><g clip-path="url(#b371540117)"><path fill="#737373" d="M 88.925781 76.8125 L 97.769531 71.699219 L 100.96875 69.84375 L 100.996094 69.816406 L 101.53125 69.507812 L 101.585938 69.476562 L 102.539062 68.914062 L 103.019531 68.632812 L 103.464844 68.382812 L 103.886719 68.128906 L 104.308594 67.902344 L 104.703125 67.679688 L 105.066406 67.453125 L 105.433594 67.257812 L 105.769531 67.0625 L 106.078125 66.863281 L 106.386719 66.695312 L 106.949219 66.359375 L 107.199219 66.21875 L 107.425781 66.078125 L 107.648438 65.9375 L 107.847656 65.824219 L 108.042969 65.710938 L 108.210938 65.597656 L 108.378906 65.515625 L 108.546875 65.429688 L 108.6875 65.347656 L 108.828125 65.261719 L 108.941406 65.207031 L 109.054688 65.148438 L 109.164062 65.09375 L 109.25 65.035156 L 109.332031 64.980469 L 109.417969 64.925781 L 109.472656 64.898438 L 109.53125 64.867188 L 109.640625 64.8125 L 109.671875 64.785156 L 109.699219 64.757812 L 109.726562 64.726562 L 109.78125 64.726562 L 109.78125 78.894531 L 100.941406 84.007812 C 100.941406 84.007812 100.941406 85.078125 100.941406 80.074219 L 97.742188 81.929688 L 97.742188 89.238281 L 109.78125 82.265625 L 158.375 110.34375 L 158.375 138.199219 L 149.53125 133.082031 L 143.132812 129.375 L 134.289062 124.257812 L 119.355469 115.628906 L 109.8125 110.121094 L 106.609375 111.976562 L 100.238281 115.65625 L 97.769531 117.089844 L 97.769531 124.398438 L 100.96875 122.542969 L 100.96875 119.929688 L 108.351562 115.65625 L 109.8125 114.8125 L 109.8125 127.742188 L 97.769531 134.714844 L 97.742188 134.742188 L 97.402344 134.9375 L 97.066406 135.136719 L 96.394531 135.527344 L 96.054688 135.726562 L 95.382812 136.117188 L 95.046875 136.316406 L 94.707031 136.511719 L 94.371094 136.710938 L 93.699219 137.101562 L 93.359375 137.300781 L 92.6875 137.691406 L 92.351562 137.890625 L 92.011719 138.085938 L 91.675781 138.28125 L 91.339844 138.480469 L 91.003906 138.675781 L 90.667969 138.875 L 90.328125 139.070312 L 89.992188 139.265625 L 89.65625 139.464844 L 89.320312 139.660156 L 88.980469 139.855469 L 88.644531 140.054688 L 88.644531 112.566406 L 97.488281 107.449219 L 109.53125 100.480469 L 130.414062 112.566406 L 136.789062 116.246094 L 142.824219 119.734375 L 149.222656 123.441406 L 149.222656 116.023438 L 109.503906 93.058594 L 88.617188 105.144531 L 88.617188 77.375 Z M 88.925781 76.8125 " fill-opacity="1" fill-rule="evenodd"/></g><g fill="#2ab4e8" fill-opacity="1"><g transform="translate(181.922483, 178.406004)"><g><path d="M 1.265625 0 L 8.234375 -72.109375 L 32.65625 -72.109375 L 39.546875 0 L 25.859375 0 L 24.84375 -11.671875 L 16.125 -11.671875 L 15.28125 0 Z M 17.203125 -23.171875 L 23.765625 -23.171875 L 20.5625 -59.859375 L 19.890625 -59.859375 Z M 17.203125 -23.171875 "/></g></g></g><g fill="#2ab4e8" fill-opacity="1"><g transform="translate(222.634036, 178.406004)"><g><path d="M 3.1875 0 L 3.1875 -72.109375 L 18.046875 -72.109375 L 24.6875 -37.609375 L 24.6875 -72.109375 L 38.625 -72.109375 L 38.625 0 L 24.515625 0 L 17.296875 -36.09375 L 17.296875 0 Z M 3.1875 0 "/></g></g></g><g fill="#2ab4e8" fill-opacity="1"><g transform="translate(264.436817, 178.406004)"><g><path d="M 3.1875 -72.109375 L 23.09375 -72.109375 C 28.238281 -72.109375 32.097656 -70.679688 34.671875 -67.828125 C 37.242188 -64.972656 38.5625 -60.75 38.625 -55.15625 L 38.78125 -21.40625 C 38.84375 -14.300781 37.613281 -8.957031 35.09375 -5.375 C 32.570312 -1.789062 28.398438 0 22.578125 0 L 3.1875 0 Z M 20.234375 -12.765625 C 22.859375 -12.765625 24.171875 -14.050781 24.171875 -16.625 L 24.171875 -53.8125 C 24.171875 -55.4375 24.046875 -56.65625 23.796875 -57.46875 C 23.546875 -58.28125 23.082031 -58.820312 22.40625 -59.09375 C 21.738281 -59.375 20.707031 -59.515625 19.3125 -59.515625 L 17.71875 -59.515625 L 17.71875 -12.765625 Z M 20.234375 -12.765625 "/></g></g></g><g fill="#737373" fill-opacity="1"><g transform="translate(217.417505, 217.227319)"><g><path d="M 5.515625 0.1875 C 3.734375 0.1875 2.445312 -0.253906 1.65625 -1.140625 C 0.875 -2.023438 0.484375 -3.445312 0.484375 -5.40625 L 0.484375 -7.3125 L 4.328125 -7.3125 L 4.328125 -4.875 C 4.328125 -3.90625 4.640625 -3.421875 5.265625 -3.421875 C 5.617188 -3.421875 5.863281 -3.519531 6 -3.71875 C 6.132812 -3.925781 6.203125 -4.273438 6.203125 -4.765625 C 6.203125 -5.398438 6.125 -5.925781 5.96875 -6.34375 C 5.820312 -6.757812 5.628906 -7.109375 5.390625 -7.390625 C 5.148438 -7.671875 4.726562 -8.109375 4.125 -8.703125 L 2.4375 -10.390625 C 1.132812 -11.671875 0.484375 -13.085938 0.484375 -14.640625 C 0.484375 -16.304688 0.863281 -17.578125 1.625 -18.453125 C 2.394531 -19.328125 3.519531 -19.765625 5 -19.765625 C 6.757812 -19.765625 8.023438 -19.296875 8.796875 -18.359375 C 9.578125 -17.421875 9.96875 -15.957031 9.96875 -13.96875 L 5.96875 -13.96875 L 5.953125 -15.3125 C 5.953125 -15.570312 5.878906 -15.773438 5.734375 -15.921875 C 5.585938 -16.078125 5.382812 -16.15625 5.125 -16.15625 C 4.820312 -16.15625 4.59375 -16.070312 4.4375 -15.90625 C 4.289062 -15.738281 4.21875 -15.515625 4.21875 -15.234375 C 4.21875 -14.585938 4.582031 -13.925781 5.3125 -13.25 L 7.59375 -11.0625 C 8.125 -10.539062 8.5625 -10.046875 8.90625 -9.578125 C 9.257812 -9.117188 9.539062 -8.570312 9.75 -7.9375 C 9.96875 -7.3125 10.078125 -6.566406 10.078125 -5.703125 C 10.078125 -3.765625 9.722656 -2.296875 9.015625 -1.296875 C 8.304688 -0.304688 7.140625 0.1875 5.515625 0.1875 Z M 5.515625 0.1875 "/></g></g></g><g fill="#737373" fill-opacity="1"><g transform="translate(233.230896, 217.227319)"><g><path d="M 5.546875 0.1875 C 3.960938 0.1875 2.757812 -0.296875 1.9375 -1.265625 C 1.113281 -2.234375 0.703125 -3.585938 0.703125 -5.328125 L 0.703125 -14.65625 C 0.703125 -16.34375 1.113281 -17.613281 1.9375 -18.46875 C 2.757812 -19.332031 3.960938 -19.765625 5.546875 -19.765625 C 7.117188 -19.765625 8.316406 -19.332031 9.140625 -18.46875 C 9.960938 -17.613281 10.375 -16.34375 10.375 -14.65625 L 10.375 -5.328125 C 10.375 -3.566406 9.960938 -2.207031 9.140625 -1.25 C 8.316406 -0.289062 7.117188 0.1875 5.546875 0.1875 Z M 5.546875 -3.421875 C 5.890625 -3.421875 6.117188 -3.570312 6.234375 -3.875 C 6.359375 -4.175781 6.421875 -4.601562 6.421875 -5.15625 L 6.421875 -14.734375 C 6.421875 -15.148438 6.363281 -15.488281 6.25 -15.75 C 6.144531 -16.019531 5.914062 -16.15625 5.5625 -16.15625 C 4.90625 -16.15625 4.578125 -15.664062 4.578125 -14.6875 L 4.578125 -5.125 C 4.578125 -4.5625 4.644531 -4.132812 4.78125 -3.84375 C 4.925781 -3.5625 5.179688 -3.421875 5.546875 -3.421875 Z M 5.546875 -3.421875 "/></g></g></g><g fill="#737373" fill-opacity="1"><g transform="translate(249.613813, 217.227319)"><g><path d="M 0.859375 0 L 0.859375 -19.578125 L 4.78125 -19.578125 L 4.78125 -3.328125 L 8.828125 -3.328125 L 8.828125 0 Z M 0.859375 0 "/></g></g></g><g fill="#737373" fill-opacity="1"><g transform="translate(263.969203, 217.227319)"><g><path d="M 5.40625 0.1875 C 3.789062 0.1875 2.59375 -0.265625 1.8125 -1.171875 C 1.03125 -2.085938 0.640625 -3.445312 0.640625 -5.25 L 0.640625 -19.578125 L 4.453125 -19.578125 L 4.453125 -5.40625 C 4.453125 -4.78125 4.507812 -4.289062 4.625 -3.9375 C 4.75 -3.59375 5.007812 -3.421875 5.40625 -3.421875 C 5.800781 -3.421875 6.054688 -3.59375 6.171875 -3.9375 C 6.296875 -4.28125 6.359375 -4.769531 6.359375 -5.40625 L 6.359375 -19.578125 L 10.171875 -19.578125 L 10.171875 -5.25 C 10.171875 -3.445312 9.773438 -2.085938 8.984375 -1.171875 C 8.203125 -0.265625 7.007812 0.1875 5.40625 0.1875 Z M 5.40625 0.1875 "/></g></g></g><g fill="#737373" fill-opacity="1"><g transform="translate(280.078744, 217.227319)"><g><path d="M 2.546875 0 L 2.546875 -15.828125 L 0.234375 -15.828125 L 0.234375 -19.578125 L 8.796875 -19.578125 L 8.796875 -15.828125 L 6.46875 -15.828125 L 6.46875 0 Z M 2.546875 0 "/></g></g></g><g fill="#737373" fill-opacity="1"><g transform="translate(294.411347, 217.227319)"><g><path d="M 0.6875 0 L 0.6875 -19.578125 L 4.46875 -19.578125 L 4.46875 0 Z M 0.6875 0 "/></g></g></g><g fill="#737373" fill-opacity="1"><g transform="translate(304.893917, 217.227319)"><g><path d="M 5.546875 0.1875 C 3.960938 0.1875 2.757812 -0.296875 1.9375 -1.265625 C 1.113281 -2.234375 0.703125 -3.585938 0.703125 -5.328125 L 0.703125 -14.65625 C 0.703125 -16.34375 1.113281 -17.613281 1.9375 -18.46875 C 2.757812 -19.332031 3.960938 -19.765625 5.546875 -19.765625 C 7.117188 -19.765625 8.316406 -19.332031 9.140625 -18.46875 C 9.960938 -17.613281 10.375 -16.34375 10.375 -14.65625 L 10.375 -5.328125 C 10.375 -3.566406 9.960938 -2.207031 9.140625 -1.25 C 8.316406 -0.289062 7.117188 0.1875 5.546875 0.1875 Z M 5.546875 -3.421875 C 5.890625 -3.421875 6.117188 -3.570312 6.234375 -3.875 C 6.359375 -4.175781 6.421875 -4.601562 6.421875 -5.15625 L 6.421875 -14.734375 C 6.421875 -15.148438 6.363281 -15.488281 6.25 -15.75 C 6.144531 -16.019531 5.914062 -16.15625 5.5625 -16.15625 C 4.90625 -16.15625 4.578125 -15.664062 4.578125 -14.6875 L 4.578125 -5.125 C 4.578125 -4.5625 4.644531 -4.132812 4.78125 -3.84375 C 4.925781 -3.5625 5.179688 -3.421875 5.546875 -3.421875 Z M 5.546875 -3.421875 "/></g></g></g><g fill="#737373" fill-opacity="1"><g transform="translate(321.276831, 217.227319)"><g><path d="M 0.859375 0 L 0.859375 -19.578125 L 4.90625 -19.578125 L 6.703125 -10.21875 L 6.703125 -19.578125 L 10.484375 -19.578125 L 10.484375 0 L 6.65625 0 L 4.703125 -9.796875 L 4.703125 0 Z M 0.859375 0 "/></g></g></g><g fill="#737373" fill-opacity="1"><g transform="translate(337.933121, 217.227319)"><g><path d="M 5.515625 0.1875 C 3.734375 0.1875 2.445312 -0.253906 1.65625 -1.140625 C 0.875 -2.023438 0.484375 -3.445312 0.484375 -5.40625 L 0.484375 -7.3125 L 4.328125 -7.3125 L 4.328125 -4.875 C 4.328125 -3.90625 4.640625 -3.421875 5.265625 -3.421875 C 5.617188 -3.421875 5.863281 -3.519531 6 -3.71875 C 6.132812 -3.925781 6.203125 -4.273438 6.203125 -4.765625 C 6.203125 -5.398438 6.125 -5.925781 5.96875 -6.34375 C 5.820312 -6.757812 5.628906 -7.109375 5.390625 -7.390625 C 5.148438 -7.671875 4.726562 -8.109375 4.125 -8.703125 L 2.4375 -10.390625 C 1.132812 -11.671875 0.484375 -13.085938 0.484375 -14.640625 C 0.484375 -16.304688 0.863281 -17.578125 1.625 -18.453125 C 2.394531 -19.328125 3.519531 -19.765625 5 -19.765625 C 6.757812 -19.765625 8.023438 -19.296875 8.796875 -18.359375 C 9.578125 -17.421875 9.96875 -15.957031 9.96875 -13.96875 L 5.96875 -13.96875 L 5.953125 -15.3125 C 5.953125 -15.570312 5.878906 -15.773438 5.734375 -15.921875 C 5.585938 -16.078125 5.382812 -16.15625 5.125 -16.15625 C 4.820312 -16.15625 4.59375 -16.070312 4.4375 -15.90625 C 4.289062 -15.738281 4.21875 -15.515625 4.21875 -15.234375 C 4.21875 -14.585938 4.582031 -13.925781 5.3125 -13.25 L 7.59375 -11.0625 C 8.125 -10.539062 8.5625 -10.046875 8.90625 -9.578125 C 9.257812 -9.117188 9.539062 -8.570312 9.75 -7.9375 C 9.96875 -7.3125 10.078125 -6.566406 10.078125 -5.703125 C 10.078125 -3.765625 9.722656 -2.296875 9.015625 -1.296875 C 8.304688 -0.304688 7.140625 0.1875 5.515625 0.1875 Z M 5.515625 0.1875 "/></g></g></g></svg>